<svg width="1545" height="299" viewBox="0 0 1545 299" fill="none" xmlns="http://www.w3.org/2000/svg">
<path d="M0.200001 193.2C0.200001 170 4.86667 149.867 14.2 132.8C23.5333 115.733 36.3333 102.533 52.6 93.2C69.1333 83.8667 88.0667 79.2 109.4 79.2C121.667 79.2 133 80.8 143.4 84C153.8 87.2 163.4 91.2 172.2 96L150.6 143.6C145.533 139.867 139.533 136.933 132.6 134.8C125.667 132.4 118.467 131.2 111 131.2C101.667 131.2 93.1333 133.333 85.4 137.6C77.9333 141.867 71.9333 148.4 67.4 157.2C63.1333 166 61 177.333 61 191.2C61 203.2 63.2667 213.333 67.8 221.6C72.3333 229.6 78.4667 235.733 86.2 240C94.2 244 103.267 246 113.4 246C120.333 246 127.267 244.933 134.2 242.8C141.133 240.667 147.133 237.867 152.2 234.4L173.8 282C165 286.8 154.733 290.8 143 294C131.533 297.2 118.733 298.8 104.6 298.8C83.8 298.8 65.5333 294.533 49.8 286C34.0667 277.2 21.8 264.933 13 249.2C4.46667 233.2 0.200001 214.533 0.200001 193.2ZM199.028 189.2C199.028 166.533 203.428 147.067 212.228 130.8C221.028 114.267 233.161 101.6 248.628 92.8C264.361 83.7333 282.228 79.2 302.228 79.2C322.495 79.2 340.361 83.7333 355.828 92.8C371.295 101.6 383.428 114.267 392.228 130.8C401.028 147.067 405.428 166.533 405.428 189.2C405.428 211.6 401.028 231.067 392.228 247.6C383.428 263.867 371.295 276.533 355.828 285.6C340.361 294.4 322.495 298.8 302.228 298.8C282.228 298.8 264.361 294.4 248.628 285.6C233.161 276.533 221.028 263.867 212.228 247.6C203.428 231.067 199.028 211.6 199.028 189.2ZM259.828 189.2C259.828 203.333 261.561 214.933 265.028 224C268.495 233.067 273.428 239.733 279.828 244C286.228 248.267 293.695 250.4 302.228 250.4C310.761 250.4 318.228 248.267 324.628 244C331.028 239.733 335.961 233.067 339.428 224C342.895 214.933 344.628 203.333 344.628 189.2C344.628 175.067 342.895 163.467 339.428 154.4C335.961 145.333 331.028 138.667 324.628 134.4C318.228 129.867 310.761 127.6 302.228 127.6C293.695 127.6 286.228 129.867 279.828 134.4C273.428 138.667 268.495 145.333 265.028 154.4C261.561 163.467 259.828 175.067 259.828 189.2ZM444.547 84H502.947L510.547 124V294H450.547V134C450.547 128.4 450.28 123.467 449.747 119.2C449.48 114.667 448.814 109.467 447.747 103.6L444.547 84ZM504.547 156.8V117.2C512.814 106 522.547 96.9333 533.747 90C545.214 82.8 558.147 79.2 572.547 79.2C585.08 79.2 596.947 82.4 608.147 88.8C619.347 94.9333 628.414 104.267 635.347 116.8C642.547 129.067 646.147 144.667 646.147 163.6V294H586.147V172.8C586.147 164 584.547 156.8 581.347 151.2C578.414 145.333 574.28 141.067 568.947 138.4C563.614 135.733 557.48 134.4 550.547 134.4C542.547 134.4 534.414 136.267 526.147 140C517.88 143.733 510.68 149.333 504.547 156.8ZM698.063 84H756.463L764.063 124V294H704.063V134C704.063 128.4 703.796 123.467 703.263 119.2C702.996 114.667 702.329 109.467 701.263 103.6L698.063 84ZM758.063 156.8V117.2C766.329 106 776.063 96.9333 787.263 90C798.729 82.8 811.663 79.2 826.063 79.2C838.596 79.2 850.463 82.4 861.663 88.8C872.863 94.9333 881.929 104.267 888.863 116.8C896.063 129.067 899.663 144.667 899.663 163.6V294H839.663V172.8C839.663 164 838.063 156.8 834.863 151.2C831.929 145.333 827.796 141.067 822.463 138.4C817.129 135.733 810.996 134.4 804.063 134.4C796.063 134.4 787.929 136.267 779.662 140C771.396 143.733 764.196 149.333 758.063 156.8ZM942.778 193.2C942.778 170.267 947.178 150.267 955.978 133.2C964.778 116.133 976.911 102.933 992.378 93.6C1007.84 84 1025.58 79.2 1045.58 79.2C1064.78 79.2 1081.31 83.4667 1095.18 92C1109.31 100.533 1120.11 112.667 1127.58 128.4C1135.31 143.867 1139.18 162.533 1139.18 184.4C1139.18 188.933 1138.91 193.2 1138.38 197.2C1138.11 201.2 1137.71 204.4 1137.18 206.8H985.578V168.8H1093.98L1081.58 185.2C1081.58 164.667 1078.24 149.733 1071.58 140.4C1065.18 130.8 1056.11 126 1044.38 126C1036.11 126 1028.64 128.133 1021.98 132.4C1015.58 136.667 1010.51 143.467 1006.78 152.8C1003.04 162.133 1001.18 174.267 1001.18 189.2C1001.18 203.333 1003.71 214.933 1008.78 224C1013.84 232.8 1020.78 239.333 1029.58 243.6C1038.64 247.867 1049.18 250 1061.18 250C1069.18 250 1077.44 248.933 1085.98 246.8C1094.78 244.4 1102.51 241.467 1109.18 238L1125.58 282.8C1115.98 287.067 1105.18 290.8 1093.18 294C1081.44 297.2 1068.51 298.8 1054.38 298.8C1030.91 298.8 1010.78 294.4 993.978 285.6C977.445 276.8 964.778 264.533 955.978 248.8C947.178 232.8 942.778 214.267 942.778 193.2ZM1183.36 294V7.99999L1243.36 -5.72205e-06V294H1183.36ZM1220.96 253.6V184.8L1303.76 84H1378.16L1220.96 253.6ZM1250.56 186.4L1288.56 149.6L1383.36 294H1314.96L1250.56 186.4ZM1389.44 130V84H1541.04V130H1389.44ZM1425.44 221.2V37.6L1485.44 29.6V213.6C1485.44 225.067 1487.7 233.067 1492.24 237.6C1496.77 242.133 1503.44 244.4 1512.24 244.4C1515.97 244.4 1519.97 244 1524.24 243.2C1528.77 242.133 1533.3 240.8 1537.84 239.2L1544.24 290.8C1537.57 293.2 1530.37 295.067 1522.64 296.4C1514.9 298 1507.17 298.8 1499.44 298.8C1484.24 298.8 1471.04 296 1459.84 290.4C1448.9 284.533 1440.37 275.867 1434.24 264.4C1428.37 252.933 1425.44 238.533 1425.44 221.2Z" fill="url(#paint0_linear_336_10269)"/>
<defs>
<linearGradient id="paint0_linear_336_10269" x1="881" y1="-84" x2="881" y2="306" gradientUnits="userSpaceOnUse">
<stop stop-color="white" stop-opacity="0.16"/>
<stop offset="1" stop-color="white" stop-opacity="0"/>
</linearGradient>
</defs>
</svg>
