<svg width="1058" height="289" viewBox="0 0 1058 289" fill="none" xmlns="http://www.w3.org/2000/svg">
<path d="M6.41 1.74H52.105V15.42H21.23V27.96H50.395V41.64H21.23V55.32H53.815V69H6.41V1.74ZM65.6789 1.74H88.0989L103.584 45.63H103.774L119.354 1.74H141.679V69H126.859V17.415H126.669L108.999 69H97.6939L80.6889 17.415H80.4989V69H65.6789V1.74ZM155.391 1.74H180.376C183.859 1.74 187.152 2.05667 190.256 2.69C193.359 3.32333 196.051 4.43166 198.331 6.015C200.674 7.53499 202.511 9.625 203.841 12.285C205.234 14.8817 205.931 18.175 205.931 22.165C205.931 26.0917 205.297 29.385 204.031 32.045C202.764 34.705 201.022 36.8267 198.806 38.41C196.589 39.9933 193.961 41.1333 190.921 41.83C187.881 42.4633 184.587 42.78 181.041 42.78H170.211V69H155.391V1.74ZM170.211 30.24H180.091C181.421 30.24 182.687 30.1133 183.891 29.86C185.157 29.6067 186.266 29.195 187.216 28.625C188.229 27.9917 189.021 27.1683 189.591 26.155C190.224 25.0783 190.541 23.7483 190.541 22.165C190.541 20.455 190.129 19.0933 189.306 18.08C188.546 17.0033 187.532 16.18 186.266 15.61C185.062 15.04 183.701 14.6917 182.181 14.565C180.661 14.375 179.204 14.28 177.811 14.28H170.211V30.24ZM211.62 35.37C211.62 29.9867 212.506 25.11 214.28 20.74C216.116 16.37 218.65 12.665 221.88 9.625C225.11 6.52167 228.941 4.14666 233.375 2.5C237.808 0.853331 242.653 0.029999 247.91 0.029999C253.166 0.029999 258.011 0.853331 262.445 2.5C266.878 4.14666 270.71 6.52167 273.94 9.625C277.17 12.665 279.671 16.37 281.445 20.74C283.281 25.11 284.2 29.9867 284.2 35.37C284.2 40.7533 283.281 45.63 281.445 50C279.671 54.37 277.17 58.1067 273.94 61.21C270.71 64.25 266.878 66.5933 262.445 68.24C258.011 69.8867 253.166 70.71 247.91 70.71C242.653 70.71 237.808 69.8867 233.375 68.24C228.941 66.5933 225.11 64.25 221.88 61.21C218.65 58.1067 216.116 54.37 214.28 50C212.506 45.63 211.62 40.7533 211.62 35.37ZM227.01 35.37C227.01 38.5367 227.485 41.45 228.435 44.11C229.448 46.7067 230.873 48.9867 232.71 50.95C234.546 52.85 236.731 54.3383 239.265 55.415C241.861 56.4917 244.743 57.03 247.91 57.03C251.076 57.03 253.926 56.4917 256.46 55.415C259.056 54.3383 261.273 52.85 263.11 50.95C264.946 48.9867 266.34 46.7067 267.29 44.11C268.303 41.45 268.81 38.5367 268.81 35.37C268.81 32.2667 268.303 29.385 267.29 26.725C266.34 24.065 264.946 21.785 263.11 19.885C261.273 17.9217 259.056 16.4017 256.46 15.325C253.926 14.2483 251.076 13.71 247.91 13.71C244.743 13.71 241.861 14.2483 239.265 15.325C236.731 16.4017 234.546 17.9217 232.71 19.885C230.873 21.785 229.448 24.065 228.435 26.725C227.485 29.385 227.01 32.2667 227.01 35.37ZM287.243 1.74H303.393L314.128 44.87H314.318L328.378 1.74H342.153L356.118 46.01H356.308L367.613 1.74H382.623L362.958 69H349.753L334.933 22.45H334.743L319.923 69H307.193L287.243 1.74ZM389.843 1.74H435.538V15.42H404.663V27.96H433.828V41.64H404.663V55.32H437.248V69H389.843V1.74ZM449.111 1.74H475.141C478.561 1.74 481.791 2.08833 484.831 2.785C487.935 3.41833 490.626 4.52666 492.906 6.10999C495.25 7.63 497.086 9.72 498.416 12.38C499.81 14.9767 500.506 18.2383 500.506 22.165C500.506 26.915 499.271 30.9683 496.801 34.325C494.331 37.6183 490.721 39.7083 485.971 40.595L503.071 69H485.306L471.246 42.115H463.931V69H449.111V1.74ZM463.931 29.575H472.671C474.001 29.575 475.395 29.5433 476.851 29.48C478.371 29.3533 479.733 29.0683 480.936 28.625C482.14 28.1183 483.121 27.3583 483.881 26.345C484.705 25.3317 485.116 23.9067 485.116 22.07C485.116 20.36 484.768 18.9983 484.071 17.985C483.375 16.9717 482.488 16.2117 481.411 15.705C480.335 15.135 479.1 14.755 477.706 14.565C476.313 14.375 474.951 14.28 473.621 14.28H463.931V29.575ZM510.523 1.74H525.343V69H510.523V1.74ZM538.823 1.74H558.963L587.558 48.48H587.748V1.74H602.568V69H583.188L553.833 21.12H553.643V69H538.823V1.74ZM677.184 64.25C672.814 66.53 668.254 68.1767 663.504 69.19C658.754 70.2033 653.909 70.71 648.969 70.71C643.713 70.71 638.868 69.8867 634.434 68.24C630.001 66.5933 626.169 64.25 622.939 61.21C619.709 58.1067 617.176 54.37 615.339 50C613.566 45.63 612.679 40.7533 612.679 35.37C612.679 29.9867 613.566 25.11 615.339 20.74C617.176 16.37 619.709 12.665 622.939 9.625C626.169 6.52167 630.001 4.14666 634.434 2.5C638.868 0.853331 643.713 0.029999 648.969 0.029999C654.353 0.029999 659.293 0.694998 663.789 2.025C668.349 3.29166 672.339 5.50833 675.759 8.675L665.309 20.075C663.283 17.985 661.003 16.4017 658.469 15.325C655.936 14.2483 652.769 13.71 648.969 13.71C645.803 13.71 642.921 14.2483 640.324 15.325C637.791 16.4017 635.606 17.9217 633.769 19.885C631.933 21.785 630.508 24.065 629.494 26.725C628.544 29.385 628.069 32.2667 628.069 35.37C628.069 38.5367 628.544 41.45 629.494 44.11C630.508 46.7067 631.933 48.9867 633.769 50.95C635.606 52.85 637.791 54.3383 640.324 55.415C642.921 56.4917 645.803 57.03 648.969 57.03C652.199 57.03 654.986 56.6817 657.329 55.985C659.673 55.225 661.541 54.465 662.934 53.705V42.78H650.869V29.1H677.184V64.25ZM5.84 110.74H30.92C33.8333 110.74 36.7467 110.962 39.66 111.405C42.6367 111.785 45.2967 112.608 47.64 113.875C49.9833 115.078 51.8833 116.788 53.34 119.005C54.7967 121.222 55.525 124.167 55.525 127.84C55.525 131.64 54.4483 134.807 52.295 137.34C50.205 139.81 47.4183 141.583 43.935 142.66V142.85C46.1517 143.167 48.1467 143.8 49.92 144.75C51.7567 145.637 53.3083 146.808 54.575 148.265C55.905 149.658 56.9183 151.305 57.615 153.205C58.3117 155.105 58.66 157.132 58.66 159.285C58.66 162.832 57.9 165.808 56.38 168.215C54.86 170.558 52.8967 172.458 50.49 173.915C48.0833 175.372 45.36 176.417 42.32 177.05C39.3433 177.683 36.3667 178 33.39 178H5.84V110.74ZM20.66 137.625H31.395C32.535 137.625 33.6433 137.498 34.72 137.245C35.86 136.992 36.8733 136.58 37.76 136.01C38.6467 135.44 39.3433 134.68 39.85 133.73C40.42 132.78 40.705 131.64 40.705 130.31C40.705 128.917 40.3883 127.777 39.755 126.89C39.185 125.94 38.425 125.212 37.475 124.705C36.525 124.198 35.4483 123.85 34.245 123.66C33.0417 123.407 31.87 123.28 30.73 123.28H20.66V137.625ZM20.66 165.46H33.96C35.1 165.46 36.24 165.333 37.38 165.08C38.5833 164.827 39.66 164.383 40.61 163.75C41.56 163.117 42.32 162.293 42.89 161.28C43.5233 160.267 43.84 159.032 43.84 157.575C43.84 155.992 43.4283 154.725 42.605 153.775C41.845 152.762 40.8633 152.002 39.66 151.495C38.4567 150.988 37.1583 150.64 35.765 150.45C34.3717 150.26 33.0733 150.165 31.87 150.165H20.66V165.46ZM124.157 152.065C124.157 156.055 123.555 159.728 122.352 163.085C121.148 166.442 119.343 169.355 116.937 171.825C114.593 174.295 111.648 176.227 108.102 177.62C104.555 179.013 100.47 179.71 95.8466 179.71C91.1599 179.71 87.0432 179.013 83.4966 177.62C79.9499 176.227 76.9732 174.295 74.5666 171.825C72.2232 169.355 70.4499 166.442 69.2466 163.085C68.0432 159.728 67.4416 156.055 67.4416 152.065V110.74H82.2616V151.495C82.2616 153.585 82.5782 155.517 83.2116 157.29C83.9082 159.063 84.8582 160.615 86.0616 161.945C87.2649 163.212 88.6899 164.225 90.3366 164.985C92.0466 165.682 93.8832 166.03 95.8466 166.03C97.8099 166.03 99.6149 165.682 101.262 164.985C102.908 164.225 104.333 163.212 105.537 161.945C106.74 160.615 107.658 159.063 108.292 157.29C108.988 155.517 109.337 153.585 109.337 151.495V110.74H124.157V152.065ZM171.107 127.175C169.903 125.655 168.257 124.547 166.167 123.85C164.14 123.09 162.208 122.71 160.372 122.71C159.295 122.71 158.187 122.837 157.047 123.09C155.907 123.343 154.83 123.755 153.817 124.325C152.803 124.832 151.98 125.528 151.347 126.415C150.713 127.302 150.397 128.378 150.397 129.645C150.397 131.672 151.157 133.223 152.677 134.3C154.197 135.377 156.097 136.295 158.377 137.055C160.72 137.815 163.222 138.575 165.882 139.335C168.542 140.095 171.012 141.172 173.292 142.565C175.635 143.958 177.567 145.827 179.087 148.17C180.607 150.513 181.367 153.648 181.367 157.575C181.367 161.312 180.67 164.573 179.277 167.36C177.883 170.147 175.983 172.458 173.577 174.295C171.233 176.132 168.478 177.493 165.312 178.38C162.208 179.267 158.915 179.71 155.432 179.71C151.062 179.71 147.008 179.045 143.272 177.715C139.535 176.385 136.052 174.232 132.822 171.255L143.367 159.665C144.887 161.692 146.787 163.275 149.067 164.415C151.41 165.492 153.817 166.03 156.287 166.03C157.49 166.03 158.693 165.903 159.897 165.65C161.163 165.333 162.272 164.89 163.222 164.32C164.235 163.75 165.027 163.022 165.597 162.135C166.23 161.248 166.547 160.203 166.547 159C166.547 156.973 165.755 155.39 164.172 154.25C162.652 153.047 160.72 152.033 158.377 151.21C156.033 150.387 153.5 149.563 150.777 148.74C148.053 147.917 145.52 146.808 143.177 145.415C140.833 144.022 138.87 142.185 137.287 139.905C135.767 137.625 135.007 134.617 135.007 130.88C135.007 127.27 135.703 124.103 137.097 121.38C138.553 118.657 140.453 116.377 142.797 114.54C145.203 112.703 147.958 111.342 151.062 110.455C154.165 109.505 157.363 109.03 160.657 109.03C164.457 109.03 168.13 109.568 171.677 110.645C175.223 111.722 178.422 113.527 181.272 116.06L171.107 127.175ZM192.217 110.74H207.037V178H192.217V110.74ZM220.518 110.74H240.658L269.253 157.48H269.443V110.74H284.263V178H264.883L235.528 130.12H235.338V178H220.518V110.74ZM298.554 110.74H344.249V124.42H313.374V136.96H342.539V150.64H313.374V164.32H345.959V178H298.554V110.74ZM391.072 127.175C389.869 125.655 388.222 124.547 386.132 123.85C384.106 123.09 382.174 122.71 380.337 122.71C379.261 122.71 378.152 122.837 377.012 123.09C375.872 123.343 374.796 123.755 373.782 124.325C372.769 124.832 371.946 125.528 371.312 126.415C370.679 127.302 370.362 128.378 370.362 129.645C370.362 131.672 371.122 133.223 372.642 134.3C374.162 135.377 376.062 136.295 378.342 137.055C380.686 137.815 383.187 138.575 385.847 139.335C388.507 140.095 390.977 141.172 393.257 142.565C395.601 143.958 397.532 145.827 399.052 148.17C400.572 150.513 401.332 153.648 401.332 157.575C401.332 161.312 400.636 164.573 399.242 167.36C397.849 170.147 395.949 172.458 393.542 174.295C391.199 176.132 388.444 177.493 385.277 178.38C382.174 179.267 378.881 179.71 375.397 179.71C371.027 179.71 366.974 179.045 363.237 177.715C359.501 176.385 356.017 174.232 352.787 171.255L363.332 159.665C364.852 161.692 366.752 163.275 369.032 164.415C371.376 165.492 373.782 166.03 376.252 166.03C377.456 166.03 378.659 165.903 379.862 165.65C381.129 165.333 382.237 164.89 383.187 164.32C384.201 163.75 384.992 163.022 385.562 162.135C386.196 161.248 386.512 160.203 386.512 159C386.512 156.973 385.721 155.39 384.137 154.25C382.617 153.047 380.686 152.033 378.342 151.21C375.999 150.387 373.466 149.563 370.742 148.74C368.019 147.917 365.486 146.808 363.142 145.415C360.799 144.022 358.836 142.185 357.252 139.905C355.732 137.625 354.972 134.617 354.972 130.88C354.972 127.27 355.669 124.103 357.062 121.38C358.519 118.657 360.419 116.377 362.762 114.54C365.169 112.703 367.924 111.342 371.027 110.455C374.131 109.505 377.329 109.03 380.622 109.03C384.422 109.03 388.096 109.568 391.642 110.645C395.189 111.722 398.387 113.527 401.237 116.06L391.072 127.175ZM445.623 127.175C444.42 125.655 442.773 124.547 440.683 123.85C438.657 123.09 436.725 122.71 434.888 122.71C433.812 122.71 432.703 122.837 431.563 123.09C430.423 123.343 429.347 123.755 428.333 124.325C427.32 124.832 426.497 125.528 425.863 126.415C425.23 127.302 424.913 128.378 424.913 129.645C424.913 131.672 425.673 133.223 427.193 134.3C428.713 135.377 430.613 136.295 432.893 137.055C435.237 137.815 437.738 138.575 440.398 139.335C443.058 140.095 445.528 141.172 447.808 142.565C450.152 143.958 452.083 145.827 453.603 148.17C455.123 150.513 455.883 153.648 455.883 157.575C455.883 161.312 455.187 164.573 453.793 167.36C452.4 170.147 450.5 172.458 448.093 174.295C445.75 176.132 442.995 177.493 439.828 178.38C436.725 179.267 433.432 179.71 429.948 179.71C425.578 179.71 421.525 179.045 417.788 177.715C414.052 176.385 410.568 174.232 407.338 171.255L417.883 159.665C419.403 161.692 421.303 163.275 423.583 164.415C425.927 165.492 428.333 166.03 430.803 166.03C432.007 166.03 433.21 165.903 434.413 165.65C435.68 165.333 436.788 164.89 437.738 164.32C438.752 163.75 439.543 163.022 440.113 162.135C440.747 161.248 441.063 160.203 441.063 159C441.063 156.973 440.272 155.39 438.688 154.25C437.168 153.047 435.237 152.033 432.893 151.21C430.55 150.387 428.017 149.563 425.293 148.74C422.57 147.917 420.037 146.808 417.693 145.415C415.35 144.022 413.387 142.185 411.803 139.905C410.283 137.625 409.523 134.617 409.523 130.88C409.523 127.27 410.22 124.103 411.613 121.38C413.07 118.657 414.97 116.377 417.313 114.54C419.72 112.703 422.475 111.342 425.578 110.455C428.682 109.505 431.88 109.03 435.173 109.03C438.973 109.03 442.647 109.568 446.193 110.645C449.74 111.722 452.938 113.527 455.788 116.06L445.623 127.175ZM467.494 110.74H513.189V124.42H482.314V136.96H511.479V150.64H482.314V164.32H514.899V178H467.494V110.74ZM560.013 127.175C558.81 125.655 557.163 124.547 555.073 123.85C553.046 123.09 551.115 122.71 549.278 122.71C548.201 122.71 547.093 122.837 545.953 123.09C544.813 123.343 543.736 123.755 542.723 124.325C541.71 124.832 540.886 125.528 540.253 126.415C539.62 127.302 539.303 128.378 539.303 129.645C539.303 131.672 540.063 133.223 541.583 134.3C543.103 135.377 545.003 136.295 547.283 137.055C549.626 137.815 552.128 138.575 554.788 139.335C557.448 140.095 559.918 141.172 562.198 142.565C564.541 143.958 566.473 145.827 567.993 148.17C569.513 150.513 570.273 153.648 570.273 157.575C570.273 161.312 569.576 164.573 568.183 167.36C566.79 170.147 564.89 172.458 562.483 174.295C560.14 176.132 557.385 177.493 554.218 178.38C551.115 179.267 547.821 179.71 544.338 179.71C539.968 179.71 535.915 179.045 532.178 177.715C528.441 176.385 524.958 174.232 521.728 171.255L532.273 159.665C533.793 161.692 535.693 163.275 537.973 164.415C540.316 165.492 542.723 166.03 545.193 166.03C546.396 166.03 547.6 165.903 548.803 165.65C550.07 165.333 551.178 164.89 552.128 164.32C553.141 163.75 553.933 163.022 554.503 162.135C555.136 161.248 555.453 160.203 555.453 159C555.453 156.973 554.661 155.39 553.078 154.25C551.558 153.047 549.626 152.033 547.283 151.21C544.94 150.387 542.406 149.563 539.683 148.74C536.96 147.917 534.426 146.808 532.083 145.415C529.74 144.022 527.776 142.185 526.193 139.905C524.673 137.625 523.913 134.617 523.913 130.88C523.913 127.27 524.61 124.103 526.003 121.38C527.46 118.657 529.36 116.377 531.703 114.54C534.11 112.703 536.865 111.342 539.968 110.455C543.071 109.505 546.27 109.03 549.563 109.03C553.363 109.03 557.036 109.568 560.583 110.645C564.13 111.722 567.328 113.527 570.178 116.06L560.013 127.175ZM625.044 116.44H602.054V110.74H654.304V116.44H631.314V178H625.044V116.44ZM664.68 110.74H670.95V140.38H708.57V110.74H714.84V178H708.57V146.08H670.95V178H664.68V110.74ZM739.509 140.38H752.809C756.103 140.38 758.763 139.968 760.789 139.145C762.879 138.322 764.494 137.308 765.634 136.105C766.774 134.902 767.534 133.603 767.914 132.21C768.358 130.817 768.579 129.55 768.579 128.41C768.579 127.27 768.358 126.003 767.914 124.61C767.534 123.217 766.774 121.918 765.634 120.715C764.494 119.512 762.879 118.498 760.789 117.675C758.763 116.852 756.103 116.44 752.809 116.44H739.509V140.38ZM733.239 110.74H750.909C751.796 110.74 752.999 110.772 754.519 110.835C756.039 110.898 757.686 111.088 759.459 111.405C761.233 111.722 763.038 112.228 764.874 112.925C766.711 113.622 768.358 114.635 769.814 115.965C771.271 117.295 772.474 118.973 773.424 121C774.374 123.027 774.849 125.497 774.849 128.41C774.849 131.64 774.279 134.3 773.139 136.39C772.063 138.48 770.669 140.19 768.959 141.52C767.313 142.787 765.476 143.737 763.449 144.37C761.423 145.003 759.491 145.447 757.654 145.7L777.224 178H770.099L751.194 146.08H739.509V178H733.239V110.74ZM785.183 144.37C785.183 139.24 786.038 134.522 787.748 130.215C789.458 125.908 791.833 122.203 794.873 119.1C797.913 115.933 801.555 113.463 805.798 111.69C810.105 109.917 814.823 109.03 819.953 109.03C825.083 109.03 829.77 109.917 834.013 111.69C838.32 113.463 841.993 115.933 845.033 119.1C848.073 122.203 850.448 125.908 852.158 130.215C853.868 134.522 854.723 139.24 854.723 144.37C854.723 149.5 853.868 154.25 852.158 158.62C850.448 162.927 848.073 166.663 845.033 169.83C841.993 172.933 838.32 175.372 834.013 177.145C829.77 178.855 825.083 179.71 819.953 179.71C814.823 179.71 810.105 178.855 805.798 177.145C801.555 175.372 797.913 172.933 794.873 169.83C791.833 166.663 789.458 162.927 787.748 158.62C786.038 154.25 785.183 149.5 785.183 144.37ZM791.453 144.37C791.453 148.55 792.118 152.445 793.448 156.055C794.778 159.665 796.678 162.8 799.148 165.46C801.618 168.12 804.595 170.21 808.078 171.73C811.625 173.25 815.583 174.01 819.953 174.01C824.323 174.01 828.25 173.25 831.733 171.73C835.28 170.21 838.288 168.12 840.758 165.46C843.228 162.8 845.128 159.665 846.458 156.055C847.788 152.445 848.453 148.55 848.453 144.37C848.453 140.19 847.788 136.295 846.458 132.685C845.128 129.075 843.228 125.94 840.758 123.28C838.288 120.62 835.28 118.53 831.733 117.01C828.25 115.49 824.323 114.73 819.953 114.73C815.583 114.73 811.625 115.49 808.078 117.01C804.595 118.53 801.618 120.62 799.148 123.28C796.678 125.94 794.778 129.075 793.448 132.685C792.118 136.295 791.453 140.19 791.453 144.37ZM916.566 152.255C916.566 155.865 916.155 159.317 915.331 162.61C914.508 165.903 913.115 168.817 911.151 171.35C909.251 173.883 906.718 175.91 903.551 177.43C900.448 178.95 896.616 179.71 892.056 179.71C887.496 179.71 883.633 178.95 880.466 177.43C877.363 175.91 874.83 173.883 872.866 171.35C870.966 168.817 869.605 165.903 868.781 162.61C867.958 159.317 867.546 155.865 867.546 152.255V110.74H873.816V150.64C873.816 153.047 874.038 155.612 874.481 158.335C874.925 161.058 875.78 163.592 877.046 165.935C878.376 168.278 880.213 170.21 882.556 171.73C884.963 173.25 888.13 174.01 892.056 174.01C895.983 174.01 899.118 173.25 901.461 171.73C903.868 170.21 905.705 168.278 906.971 165.935C908.301 163.592 909.188 161.058 909.631 158.335C910.075 155.612 910.296 153.047 910.296 150.64V110.74H916.566V152.255ZM989.203 173.63C985.276 175.847 981.191 177.398 976.948 178.285C972.768 179.235 968.493 179.71 964.123 179.71C958.993 179.71 954.274 178.855 949.968 177.145C945.724 175.372 942.083 172.933 939.043 169.83C936.003 166.663 933.628 162.927 931.918 158.62C930.208 154.25 929.353 149.5 929.353 144.37C929.353 139.24 930.208 134.522 931.918 130.215C933.628 125.908 936.003 122.203 939.043 119.1C942.083 115.933 945.724 113.463 949.968 111.69C954.274 109.917 958.993 109.03 964.123 109.03C974.129 109.03 982.204 112.133 988.348 118.34L983.788 123.09C982.774 121.887 981.508 120.778 979.988 119.765C978.531 118.688 976.916 117.802 975.143 117.105C973.433 116.345 971.628 115.775 969.728 115.395C967.828 114.952 965.959 114.73 964.123 114.73C959.753 114.73 955.794 115.49 952.248 117.01C948.764 118.53 945.788 120.62 943.318 123.28C940.848 125.94 938.948 129.075 937.618 132.685C936.288 136.295 935.623 140.19 935.623 144.37C935.623 148.55 936.288 152.445 937.618 156.055C938.948 159.665 940.848 162.8 943.318 165.46C945.788 168.12 948.764 170.21 952.248 171.73C955.794 173.25 959.753 174.01 964.123 174.01C967.733 174.01 971.121 173.725 974.288 173.155C977.454 172.585 980.336 171.54 982.933 170.02V147.41H966.783V141.71H989.203V173.63ZM1007.66 110.74H1013.93V140.38H1051.55V110.74H1057.82V178H1051.55V146.08H1013.93V178H1007.66V110.74ZM23.13 225.44H0.14V219.74H52.39V225.44H29.4V287H23.13V225.44ZM76.8866 219.74H83.3466L111.657 287H104.627L97.3116 269.14H61.6866L54.0866 287H47.5316L76.8866 219.74ZM79.8316 226.58L64.1566 263.44H95.0316L79.8316 226.58ZM121.306 219.74H127.576V281.3H158.926V287H121.306V219.74ZM168.806 219.74H209.941V225.44H175.076V249.38H207.756V255.08H175.076V281.3H211.461V287H168.806V219.74ZM225.119 219.74H233.194L274.139 278.64H274.329V219.74H280.599V287H272.524L231.579 228.1H231.389V287H225.119V219.74ZM313.975 225.44H290.985V219.74H343.235V225.44H320.245V287H313.975V225.44ZM380.093 274.555C381.74 277.405 383.862 279.527 386.458 280.92C389.118 282.313 392.127 283.01 395.483 283.01C397.573 283.01 399.537 282.693 401.373 282.06C403.21 281.427 404.793 280.54 406.123 279.4C407.517 278.26 408.593 276.898 409.353 275.315C410.177 273.668 410.588 271.832 410.588 269.805C410.588 267.462 410.082 265.53 409.068 264.01C408.118 262.49 406.82 261.255 405.173 260.305C403.527 259.292 401.658 258.437 399.568 257.74C397.542 257.043 395.42 256.347 393.203 255.65C391.05 254.953 388.928 254.162 386.838 253.275C384.812 252.388 382.975 251.248 381.328 249.855C379.682 248.398 378.352 246.593 377.338 244.44C376.388 242.287 375.913 239.627 375.913 236.46C375.913 233.483 376.483 230.855 377.623 228.575C378.827 226.232 380.41 224.3 382.373 222.78C384.4 221.197 386.712 220.025 389.308 219.265C391.905 218.442 394.628 218.03 397.478 218.03C401.152 218.03 404.54 218.695 407.643 220.025C410.81 221.292 413.533 223.445 415.813 226.485L410.398 230.38C408.815 228.163 406.947 226.517 404.793 225.44C402.703 224.3 400.202 223.73 397.288 223.73C395.262 223.73 393.33 224.015 391.493 224.585C389.657 225.092 388.042 225.883 386.648 226.96C385.318 227.973 384.242 229.272 383.418 230.855C382.595 232.438 382.183 234.307 382.183 236.46C382.183 239.817 383.038 242.413 384.748 244.25C386.458 246.023 388.58 247.448 391.113 248.525C393.71 249.538 396.497 250.457 399.473 251.28C402.513 252.04 405.3 253.085 407.833 254.415C410.43 255.745 412.583 257.613 414.293 260.02C416.003 262.363 416.858 265.625 416.858 269.805C416.858 272.845 416.288 275.537 415.148 277.88C414.008 280.223 412.457 282.218 410.493 283.865C408.593 285.448 406.377 286.652 403.843 287.475C401.31 288.298 398.682 288.71 395.958 288.71C391.525 288.71 387.44 287.95 383.703 286.43C379.967 284.847 376.768 282.218 374.108 278.545L380.093 274.555ZM426.706 253.37C426.706 248.24 427.561 243.522 429.271 239.215C430.981 234.908 433.356 231.203 436.396 228.1C439.436 224.933 443.078 222.463 447.321 220.69C451.628 218.917 456.346 218.03 461.476 218.03C466.606 218.03 471.293 218.917 475.536 220.69C479.843 222.463 483.516 224.933 486.556 228.1C489.596 231.203 491.971 234.908 493.681 239.215C495.391 243.522 496.246 248.24 496.246 253.37C496.246 258.5 495.391 263.25 493.681 267.62C491.971 271.927 489.596 275.663 486.556 278.83C483.516 281.933 479.843 284.372 475.536 286.145C471.293 287.855 466.606 288.71 461.476 288.71C456.346 288.71 451.628 287.855 447.321 286.145C443.078 284.372 439.436 281.933 436.396 278.83C433.356 275.663 430.981 271.927 429.271 267.62C427.561 263.25 426.706 258.5 426.706 253.37ZM432.976 253.37C432.976 257.55 433.641 261.445 434.971 265.055C436.301 268.665 438.201 271.8 440.671 274.46C443.141 277.12 446.118 279.21 449.601 280.73C453.148 282.25 457.106 283.01 461.476 283.01C465.846 283.01 469.773 282.25 473.256 280.73C476.803 279.21 479.811 277.12 482.281 274.46C484.751 271.8 486.651 268.665 487.981 265.055C489.311 261.445 489.976 257.55 489.976 253.37C489.976 249.19 489.311 245.295 487.981 241.685C486.651 238.075 484.751 234.94 482.281 232.28C479.811 229.62 476.803 227.53 473.256 226.01C469.773 224.49 465.846 223.73 461.476 223.73C457.106 223.73 453.148 224.49 449.601 226.01C446.118 227.53 443.141 229.62 440.671 232.28C438.201 234.94 436.301 238.075 434.971 241.685C433.641 245.295 432.976 249.19 432.976 253.37ZM510.305 219.74H516.575V281.3H547.925V287H510.305V219.74ZM605.59 261.255C605.59 264.865 605.178 268.317 604.355 271.61C603.532 274.903 602.138 277.817 600.175 280.35C598.275 282.883 595.742 284.91 592.575 286.43C589.472 287.95 585.64 288.71 581.08 288.71C576.52 288.71 572.657 287.95 569.49 286.43C566.387 284.91 563.853 282.883 561.89 280.35C559.99 277.817 558.628 274.903 557.805 271.61C556.982 268.317 556.57 264.865 556.57 261.255V219.74H562.84V259.64C562.84 262.047 563.062 264.612 563.505 267.335C563.948 270.058 564.803 272.592 566.07 274.935C567.4 277.278 569.237 279.21 571.58 280.73C573.987 282.25 577.153 283.01 581.08 283.01C585.007 283.01 588.142 282.25 590.485 280.73C592.892 279.21 594.728 277.278 595.995 274.935C597.325 272.592 598.212 270.058 598.655 267.335C599.098 264.612 599.32 262.047 599.32 259.64V219.74H605.59V261.255ZM637.661 225.44H614.671V219.74H666.921V225.44H643.931V287H637.661V225.44ZM677.297 219.74H683.567V287H677.297V219.74ZM697.605 253.37C697.605 248.24 698.46 243.522 700.17 239.215C701.88 234.908 704.255 231.203 707.295 228.1C710.335 224.933 713.976 222.463 718.22 220.69C722.526 218.917 727.245 218.03 732.375 218.03C737.505 218.03 742.191 218.917 746.435 220.69C750.741 222.463 754.415 224.933 757.455 228.1C760.495 231.203 762.87 234.908 764.58 239.215C766.29 243.522 767.145 248.24 767.145 253.37C767.145 258.5 766.29 263.25 764.58 267.62C762.87 271.927 760.495 275.663 757.455 278.83C754.415 281.933 750.741 284.372 746.435 286.145C742.191 287.855 737.505 288.71 732.375 288.71C727.245 288.71 722.526 287.855 718.22 286.145C713.976 284.372 710.335 281.933 707.295 278.83C704.255 275.663 701.88 271.927 700.17 267.62C698.46 263.25 697.605 258.5 697.605 253.37ZM703.875 253.37C703.875 257.55 704.54 261.445 705.87 265.055C707.2 268.665 709.1 271.8 711.57 274.46C714.04 277.12 717.016 279.21 720.5 280.73C724.046 282.25 728.005 283.01 732.375 283.01C736.745 283.01 740.671 282.25 744.155 280.73C747.701 279.21 750.71 277.12 753.18 274.46C755.65 271.8 757.55 268.665 758.88 265.055C760.21 261.445 760.875 257.55 760.875 253.37C760.875 249.19 760.21 245.295 758.88 241.685C757.55 238.075 755.65 234.94 753.18 232.28C750.71 229.62 747.701 227.53 744.155 226.01C740.671 224.49 736.745 223.73 732.375 223.73C728.005 223.73 724.046 224.49 720.5 226.01C717.016 227.53 714.04 229.62 711.57 232.28C709.1 234.94 707.2 238.075 705.87 241.685C704.54 245.295 703.875 249.19 703.875 253.37ZM781.203 219.74H789.278L830.223 278.64H830.413V219.74H836.683V287H828.608L787.663 228.1H787.473V287H781.203V219.74ZM856.949 274.555C858.595 277.405 860.717 279.527 863.314 280.92C865.974 282.313 868.982 283.01 872.339 283.01C874.429 283.01 876.392 282.693 878.229 282.06C880.065 281.427 881.649 280.54 882.979 279.4C884.372 278.26 885.449 276.898 886.209 275.315C887.032 273.668 887.444 271.832 887.444 269.805C887.444 267.462 886.937 265.53 885.924 264.01C884.974 262.49 883.675 261.255 882.029 260.305C880.382 259.292 878.514 258.437 876.424 257.74C874.397 257.043 872.275 256.347 870.059 255.65C867.905 254.953 865.784 254.162 863.694 253.275C861.667 252.388 859.83 251.248 858.184 249.855C856.537 248.398 855.207 246.593 854.194 244.44C853.244 242.287 852.769 239.627 852.769 236.46C852.769 233.483 853.339 230.855 854.479 228.575C855.682 226.232 857.265 224.3 859.229 222.78C861.255 221.197 863.567 220.025 866.164 219.265C868.76 218.442 871.484 218.03 874.334 218.03C878.007 218.03 881.395 218.695 884.499 220.025C887.665 221.292 890.389 223.445 892.669 226.485L887.254 230.38C885.67 228.163 883.802 226.517 881.649 225.44C879.559 224.3 877.057 223.73 874.144 223.73C872.117 223.73 870.185 224.015 868.349 224.585C866.512 225.092 864.897 225.883 863.504 226.96C862.174 227.973 861.097 229.272 860.274 230.855C859.45 232.438 859.039 234.307 859.039 236.46C859.039 239.817 859.894 242.413 861.604 244.25C863.314 246.023 865.435 247.448 867.969 248.525C870.565 249.538 873.352 250.457 876.329 251.28C879.369 252.04 882.155 253.085 884.689 254.415C887.285 255.745 889.439 257.613 891.149 260.02C892.859 262.363 893.714 265.625 893.714 269.805C893.714 272.845 893.144 275.537 892.004 277.88C890.864 280.223 889.312 282.218 887.349 283.865C885.449 285.448 883.232 286.652 880.699 287.475C878.165 288.298 875.537 288.71 872.814 288.71C868.38 288.71 864.295 287.95 860.559 286.43C856.822 284.847 853.624 282.218 850.964 278.545L856.949 274.555Z" fill="white"/>
</svg>
